<svg width="22" height="25" viewBox="0 0 22 25" fill="none" xmlns="http://www.w3.org/2000/svg">
<rect width="22" height="25" fill="#F5F5F5"/>
<g id="Strona g&#197;&#130;&#195;&#179;wna">
<rect width="1920" height="1532" transform="translate(-1722 -225)" fill="white"/>
<g id="MainContent">
<rect x="-1722" y="-25" width="1920" height="1330" fill="white"/>
<rect x="-1722" y="-25" width="1920" height="1330" stroke="black"/>
<g id="TopBar">
<g id="List">
<g id="Item">
<g id="Link">
<g id="bag-d41ef75b.svg">
<g id="bag-d41ef75b.svg_2" clip-path="url(#clip0_0_1)">
<path id="bag" d="M21.6 7.93994H16.8V4.93994C16.8 2.73094 14.6508 0.939941 12 0.939941C9.3492 0.939941 7.2 2.73094 7.2 4.93994V7.93994H2.4L0 24.9399H24L21.6 7.93994ZM8.4 4.93994C8.4 3.28594 10.0152 1.93994 12 1.93994C13.9848 1.93994 15.6 3.28594 15.6 4.93994V7.93994H8.4V4.93994ZM2.6988 22.9399L4.5336 9.93994H7.2V11.4399C7.2 11.7159 7.4688 11.9399 7.8 11.9399C8.1312 11.9399 8.4 11.7159 8.4 11.4399V9.93994H15.6V11.4399C15.6 11.7159 15.8688 11.9399 16.2 11.9399C16.5312 11.9399 16.8 11.7159 16.8 11.4399V9.93994H19.4664L21.3012 22.9399H2.6988Z" fill="black"/>
</g>
</g>
<g id="div._activeItem_9ux39_16">
<rect x="11" y="13" width="20" height="20" rx="10" fill="#FFDE00"/>
<path id="2" d="M23.0317 24.2354V25.2549H19.1841C19.2257 24.8695 19.3507 24.5049 19.5591 24.1611C19.7674 23.8148 20.1789 23.3564 20.7935 22.7861C21.2882 22.3252 21.5916 22.0127 21.7036 21.8486C21.8547 21.6221 21.9302 21.3981 21.9302 21.1768C21.9302 20.932 21.8638 20.7445 21.731 20.6143C21.6007 20.4814 21.4198 20.415 21.188 20.415C20.9588 20.415 20.7765 20.484 20.6411 20.6221C20.5057 20.7601 20.4276 20.9893 20.4067 21.3096L19.313 21.2002C19.3781 20.596 19.5825 20.1624 19.9263 19.8994C20.27 19.6364 20.6997 19.5049 21.2153 19.5049C21.7804 19.5049 22.2244 19.6572 22.5474 19.9619C22.8703 20.2666 23.0317 20.6455 23.0317 21.0986C23.0317 21.3564 22.9849 21.6025 22.8911 21.8369C22.8 22.0687 22.6541 22.3122 22.4536 22.5674C22.3208 22.7367 22.0812 22.9801 21.7349 23.2979C21.3885 23.6156 21.1685 23.8265 21.0747 23.9307C20.9836 24.0348 20.9093 24.1364 20.8521 24.2354H23.0317Z" fill="#222020"/>
</g>
</g>
</g>
</g>
</g>
</g>
</g>
<defs>
<clipPath id="clip0_0_1">
<rect width="24" height="24" fill="white" transform="translate(-2 0.939941)"/>
</clipPath>
</defs>
</svg>
